<svg xmlns="http://www.w3.org/2000/svg" viewBox="0 0 512 512">
  <defs>
    <linearGradient id="bg" x1="0%" y1="0%" x2="100%" y2="100%">
      <stop offset="0%" stop-color="#4f46e5"/>
      <stop offset="100%" stop-color="#7c3aed"/>
    </linearGradient>
    <linearGradient id="core" x1="0%" y1="0%" x2="100%" y2="100%">
      <stop offset="0%" stop-color="#a78bfa"/>
      <stop offset="100%" stop-color="#c4b5fd"/>
    </linearGradient>
    <linearGradient id="spark" x1="0%" y1="0%" x2="100%" y2="100%">
      <stop offset="0%" stop-color="#fbbf24"/>
      <stop offset="100%" stop-color="#f59e0b"/>
    </linearGradient>
    <filter id="glow">
      <feGaussianBlur stdDeviation="8" result="blur"/>
      <feMerge>
        <feMergeNode in="blur"/>
        <feMergeNode in="SourceGraphic"/>
      </feMerge>
    </filter>
    <filter id="innerGlow">
      <feGaussianBlur stdDeviation="4" result="blur"/>
      <feMerge>
        <feMergeNode in="blur"/>
        <feMergeNode in="SourceGraphic"/>
      </feMerge>
    </filter>
  </defs>
  <rect width="512" height="512" rx="96" fill="url(#bg)"/>
  <g transform="translate(256,256)">
    <polygon points="0,-160 138.6,-80 138.6,80 0,160 -138.6,80 -138.6,-80" fill="none" stroke="rgba(255,255,255,0.15)" stroke-width="3"/>
    <polygon points="0,-120 103.9,-60 103.9,60 0,120 -103.9,60 -103.9,-60" fill="none" stroke="rgba(255,255,255,0.25)" stroke-width="2.5"/>
    <polygon points="0,-80 69.3,-40 69.3,40 0,80 -69.3,40 -69.3,-40" fill="none" stroke="rgba(255,255,255,0.35)" stroke-width="2"/>
    <line x1="0" y1="-120" x2="0" y2="-80" stroke="rgba(255,255,255,0.4)" stroke-width="2"/>
    <line x1="103.9" y1="-60" x2="69.3" y2="-40" stroke="rgba(255,255,255,0.4)" stroke-width="2"/>
    <line x1="103.9" y1="60" x2="69.3" y2="40" stroke="rgba(255,255,255,0.4)" stroke-width="2"/>
    <line x1="0" y1="120" x2="0" y2="80" stroke="rgba(255,255,255,0.4)" stroke-width="2"/>
    <line x1="-103.9" y1="60" x2="-69.3" y2="40" stroke="rgba(255,255,255,0.4)" stroke-width="2"/>
    <line x1="-103.9" y1="-60" x2="-69.3" y2="-40" stroke="rgba(255,255,255,0.4)" stroke-width="2"/>
    <line x1="0" y1="-80" x2="69.3" y2="-40" stroke="rgba(255,255,255,0.3)" stroke-width="1.5"/>
    <line x1="69.3" y1="-40" x2="69.3" y2="40" stroke="rgba(255,255,255,0.3)" stroke-width="1.5"/>
    <line x1="69.3" y1="40" x2="0" y2="80" stroke="rgba(255,255,255,0.3)" stroke-width="1.5"/>
    <line x1="0" y1="80" x2="-69.3" y2="40" stroke="rgba(255,255,255,0.3)" stroke-width="1.5"/>
    <line x1="-69.3" y1="40" x2="-69.3" y2="-40" stroke="rgba(255,255,255,0.3)" stroke-width="1.5"/>
    <line x1="-69.3" y1="-40" x2="0" y2="-80" stroke="rgba(255,255,255,0.3)" stroke-width="1.5"/>
    <circle cx="0" cy="-120" r="8" fill="white" opacity="0.9"/>
    <circle cx="103.9" cy="-60" r="8" fill="white" opacity="0.9"/>
    <circle cx="103.9" cy="60" r="8" fill="white" opacity="0.9"/>
    <circle cx="0" cy="120" r="8" fill="white" opacity="0.9"/>
    <circle cx="-103.9" cy="60" r="8" fill="white" opacity="0.9"/>
    <circle cx="-103.9" cy="-60" r="8" fill="white" opacity="0.9"/>
    <circle cx="0" cy="-80" r="6" fill="white" opacity="0.7"/>
    <circle cx="69.3" cy="-40" r="6" fill="white" opacity="0.7"/>
    <circle cx="69.3" cy="40" r="6" fill="white" opacity="0.7"/>
    <circle cx="0" cy="80" r="6" fill="white" opacity="0.7"/>
    <circle cx="-69.3" cy="40" r="6" fill="white" opacity="0.7"/>
    <circle cx="-69.3" cy="-40" r="6" fill="white" opacity="0.7"/>
    <circle cx="0" cy="0" r="28" fill="url(#core)" filter="url(#glow)" opacity="0.95"/>
    <circle cx="0" cy="0" r="18" fill="white" opacity="0.9"/>
    <circle cx="0" cy="0" r="10" fill="url(#spark)" filter="url(#innerGlow)"/>
    <line x1="-18" y1="-18" x2="-32" y2="-32" stroke="#fbbf24" stroke-width="2.5" stroke-linecap="round" opacity="0.8"/>
    <line x1="18" y1="-18" x2="32" y2="-32" stroke="#fbbf24" stroke-width="2.5" stroke-linecap="round" opacity="0.8"/>
    <line x1="22" y1="4" x2="38" y2="8" stroke="#fbbf24" stroke-width="2.5" stroke-linecap="round" opacity="0.7"/>
    <line x1="-22" y1="4" x2="-38" y2="8" stroke="#fbbf24" stroke-width="2.5" stroke-linecap="round" opacity="0.7"/>
    <line x1="-8" y1="22" x2="-12" y2="38" stroke="#fbbf24" stroke-width="2" stroke-linecap="round" opacity="0.6"/>
    <line x1="8" y1="22" x2="12" y2="38" stroke="#fbbf24" stroke-width="2" stroke-linecap="round" opacity="0.6"/>
  </g>
</svg>
